<svg width="144" height="34" viewBox="0 0 144 34" fill="none" xmlns="http://www.w3.org/2000/svg">
<path d="M44.52 28.92H39.32V15.48H44.52V19.88H48.84V15.48H54.04V28.92H48.84V24.2H44.52V28.92ZM60.7594 29.24C57.0794 29.24 54.6314 27.128 54.5194 23.944H59.0154C59.1114 24.808 59.7674 25.4 60.7594 25.4C61.8314 25.4 62.5194 24.696 62.5194 23.704C62.5194 22.712 61.8314 22.04 60.7594 22.04C59.7674 22.04 59.0314 22.68 59.0154 23.784L54.5194 23.464C54.6474 20.296 57.0954 18.2 60.7594 18.2C64.5194 18.2 66.9994 20.408 66.9994 23.72C66.9994 27.032 64.5194 29.24 60.7594 29.24ZM67.4763 28.92V18.52H71.8763V28.92H67.4763ZM72.0363 19.272C72.8523 18.664 74.3083 18.2 75.4283 18.2C76.6603 18.2 77.4763 18.536 77.9723 19.256C78.9483 18.664 80.1643 18.2 81.5883 18.2C83.8763 18.2 84.7563 19.336 84.7563 22.072V28.92H80.3563V23.048C80.3563 22.504 80.2123 22.328 79.7803 22.328C79.4123 22.328 79.0283 22.408 78.5963 22.616V28.92H74.1963V23.048C74.1963 22.504 74.0523 22.328 73.6203 22.328C73.3323 22.328 72.9803 22.456 72.3563 22.792L72.0363 19.272ZM85.3981 18.52H89.7981V19.16C90.6781 18.536 91.9101 18.2 93.2861 18.2C96.3421 18.2 98.3581 20.488 98.3581 23.944C98.3581 27.256 96.4541 29.224 93.2861 29.224C92.1661 29.224 91.0141 29.128 89.9581 28.728L90.4381 25.448H91.3501C93.0621 25.448 93.8781 24.872 93.8781 23.816C93.8781 22.808 93.1261 22.216 91.8461 22.216C90.4701 22.216 89.7981 22.92 89.7981 24.104V31.8H85.3981V18.52ZM99.4756 19.272C101.204 18.584 103.844 18.2 105.62 18.2C108.708 18.2 110.196 19.08 110.196 21.72V28.92H105.796V25.176H105.396C104.212 25.176 103.38 25.272 103.38 25.832C103.38 26.312 104.068 26.408 105.076 26.408H105.236L105.636 28.84C105.012 29.08 103.86 29.24 102.788 29.24C99.9716 29.24 98.5956 28.104 98.5956 26.232C98.5956 24.12 100.628 22.536 104.372 22.536H105.796V22.504C105.796 21.768 105.716 21.672 104.836 21.672C103.284 21.672 101.156 22.104 99.7956 22.504L99.4756 19.272ZM111.076 24.936C112.836 25.496 114.244 25.736 115.62 25.736C116.628 25.736 116.852 25.656 116.852 25.416C116.852 25.176 116.596 25.096 115.812 25.096C112.228 25.096 110.676 24.008 110.676 21.688C110.676 19.384 112.532 18.2 116.18 18.2C117.78 18.2 119.396 18.488 120.804 18.952L120.484 22.28C118.772 21.832 117.524 21.64 116.196 21.64C115.332 21.64 114.996 21.72 114.996 21.96C114.996 22.2 115.284 22.28 115.956 22.28C119.796 22.28 121.156 23.352 121.156 25.672C121.156 28.056 119.572 29.24 116.372 29.24C114.292 29.24 112.34 28.936 110.756 28.36L111.076 24.936ZM121.873 24.936C123.633 25.496 125.041 25.736 126.417 25.736C127.425 25.736 127.649 25.656 127.649 25.416C127.649 25.176 127.393 25.096 126.609 25.096C123.025 25.096 121.473 24.008 121.473 21.688C121.473 19.384 123.329 18.2 126.977 18.2C128.577 18.2 130.193 18.488 131.601 18.952L131.281 22.28C129.569 21.832 128.321 21.64 126.993 21.64C126.129 21.64 125.793 21.72 125.793 21.96C125.793 22.2 126.081 22.28 126.753 22.28C130.593 22.28 131.953 23.352 131.953 25.672C131.953 28.056 130.369 29.24 127.169 29.24C125.089 29.24 123.137 28.936 121.553 28.36L121.873 24.936Z" fill="black"/>
<path d="M43.648 10.856C43.8613 10.856 44.0133 10.9227 44.104 11.056C44.2 11.184 44.248 11.3387 44.248 11.52C44.248 11.7067 44.2 11.8667 44.104 12C44.008 12.1387 43.856 12.208 43.648 12.208H40.72C40.4053 12.208 40.16 12.168 39.984 12.088C39.8133 12.008 39.6907 11.88 39.616 11.704C39.5467 11.528 39.512 11.2853 39.512 10.976V6.192C39.512 5.936 39.5867 5.744 39.736 5.616C39.8907 5.48267 40.0853 5.416 40.32 5.416C40.5493 5.416 40.736 5.48267 40.88 5.616C41.0293 5.74933 41.104 5.94133 41.104 6.192V10.632C41.104 10.7227 41.12 10.784 41.152 10.816C41.184 10.8427 41.2453 10.856 41.336 10.856H43.648ZM44.68 5.888C44.68 5.63733 44.7573 5.44267 44.912 5.304C45.0667 5.16533 45.256 5.096 45.48 5.096C45.704 5.096 45.8933 5.16533 46.048 5.304C46.2027 5.44267 46.28 5.63733 46.28 5.888V7.896H46.568C46.792 7.896 46.952 7.96533 47.048 8.104C47.1493 8.23733 47.2 8.4 47.2 8.592C47.2 8.784 47.1493 8.94933 47.048 9.088C46.9467 9.22133 46.7867 9.288 46.568 9.288H46.28V12.608H44.68V5.888ZM48.568 9.384C48.2907 9.384 48.0747 9.35733 47.92 9.304C47.7707 9.24533 47.6613 9.14933 47.592 9.016C47.5227 8.87733 47.488 8.68 47.488 8.424V6.336C47.488 6.08533 47.5227 5.89067 47.592 5.752C47.6613 5.61333 47.7733 5.51467 47.928 5.456C48.0827 5.39733 48.296 5.368 48.568 5.368H50.872C51.1333 5.368 51.336 5.39733 51.48 5.456C51.6293 5.51467 51.736 5.61867 51.8 5.768C51.8693 5.912 51.904 6.11733 51.904 6.384V9.384H48.568ZM48.992 8.048C48.992 8.16 49.0507 8.216 49.168 8.216H50.416V6.688C50.416 6.58133 50.3627 6.528 50.256 6.528H49.144C49.0427 6.528 48.992 6.584 48.992 6.696V8.048ZM52.72 5.888C52.72 5.63733 52.7973 5.44267 52.952 5.304C53.1067 5.16533 53.296 5.096 53.52 5.096C53.744 5.096 53.9333 5.16533 54.088 5.304C54.2427 5.44267 54.32 5.63733 54.32 5.888V7.096H54.568C54.792 7.096 54.952 7.16533 55.048 7.304C55.1493 7.43733 55.2 7.6 55.2 7.792C55.2 7.984 55.1493 8.14933 55.048 8.288C54.9467 8.42133 54.7867 8.488 54.568 8.488H54.32V10.768H52.72V5.888ZM49.016 12.608C48.7173 12.608 48.4853 12.5707 48.32 12.496C48.16 12.4213 48.0453 12.2987 47.976 12.128C47.912 11.9627 47.88 11.7333 47.88 11.44V10.6C47.88 10.3493 47.9573 10.16 48.112 10.032C48.2667 9.89867 48.464 9.832 48.704 9.832C48.9387 9.832 49.1307 9.89867 49.28 10.032C49.4293 10.1653 49.504 10.3547 49.504 10.6V11.192C49.504 11.2667 49.5173 11.3173 49.544 11.344C49.5707 11.3653 49.6213 11.376 49.696 11.376H53.912C54.136 11.376 54.3013 11.4347 54.408 11.552C54.52 11.664 54.576 11.808 54.576 11.984C54.576 12.1653 54.52 12.3147 54.408 12.432C54.3013 12.5493 54.136 12.608 53.912 12.608H49.016ZM55.456 7.256C55.456 6.58933 55.672 6.08533 56.104 5.744C56.536 5.40267 57.0987 5.232 57.792 5.232C58.4853 5.232 59.0453 5.40267 59.472 5.744C59.904 6.08533 60.12 6.58933 60.12 7.256V8.024C60.12 8.69067 59.904 9.19467 59.472 9.536C59.0453 9.87733 58.4853 10.048 57.792 10.048C57.0987 10.048 56.536 9.87733 56.104 9.536C55.672 9.19467 55.456 8.69067 55.456 8.024V7.256ZM57.024 8.08C57.024 8.32 57.0987 8.49867 57.248 8.616C57.3973 8.73333 57.5787 8.792 57.792 8.792C58.0053 8.792 58.1867 8.73333 58.336 8.616C58.4853 8.49867 58.56 8.32 58.56 8.08V7.2C58.56 6.96 58.4853 6.78133 58.336 6.664C58.1867 6.54667 58.0053 6.488 57.792 6.488C57.5787 6.488 57.3973 6.54667 57.248 6.664C57.0987 6.78133 57.024 6.96 57.024 7.2V8.08ZM60.92 5.888C60.92 5.63733 60.9973 5.44267 61.152 5.304C61.3067 5.16533 61.496 5.096 61.72 5.096C61.944 5.096 62.1333 5.16533 62.288 5.304C62.4427 5.44267 62.52 5.63733 62.52 5.888V12.608H60.92V5.888ZM59.952 10.976C60.1813 10.976 60.352 11.0427 60.464 11.176C60.5813 11.3093 60.64 11.4693 60.64 11.656C60.64 11.8427 60.5813 12 60.464 12.128C60.352 12.2613 60.1813 12.328 59.952 12.328H55.944C55.7147 12.328 55.5413 12.2613 55.424 12.128C55.312 12 55.256 11.8427 55.256 11.656C55.256 11.4693 55.312 11.3093 55.424 11.176C55.5413 11.0427 55.7147 10.976 55.944 10.976H59.952ZM66.8982 12.608C66.5942 12.608 66.3649 12.5733 66.2102 12.504C66.0609 12.4347 65.9569 12.3227 65.8982 12.168C65.8449 12.0133 65.8182 11.7893 65.8182 11.496V11.032C65.8182 10.7387 65.8449 10.5147 65.8982 10.36C65.9569 10.2053 66.0609 10.096 66.2102 10.032C66.3649 9.96267 66.5942 9.928 66.8982 9.928H71.5782C71.8822 9.928 72.1089 9.96267 72.2582 10.032C72.4129 10.096 72.5169 10.2053 72.5702 10.36C72.6289 10.5147 72.6582 10.7387 72.6582 11.032V12.608H66.8982ZM67.4182 11.344C67.4182 11.4133 67.4315 11.464 67.4582 11.496C67.4849 11.5227 67.5355 11.536 67.6102 11.536H71.0662V11.184C71.0662 11.1253 71.0502 11.08 71.0182 11.048C70.9915 11.016 70.9409 11 70.8662 11H67.6102C67.5355 11 67.4849 11.016 67.4582 11.048C67.4315 11.0747 67.4182 11.12 67.4182 11.184V11.344ZM72.3382 8.296C72.5515 8.296 72.7115 8.35467 72.8182 8.472C72.9302 8.58933 72.9862 8.736 72.9862 8.912C72.9862 9.09333 72.9302 9.24267 72.8182 9.36C72.7115 9.472 72.5515 9.528 72.3382 9.528H66.1462C65.9329 9.528 65.7702 9.472 65.6582 9.36C65.5515 9.24267 65.4982 9.09333 65.4982 8.912C65.4982 8.736 65.5515 8.58933 65.6582 8.472C65.7702 8.35467 65.9329 8.296 66.1462 8.296H72.3382ZM65.7622 6.536C65.7622 6.10933 65.8982 5.776 66.1702 5.536C66.4475 5.296 66.8395 5.176 67.3462 5.176H71.1302C71.6369 5.176 72.0289 5.296 72.3062 5.536C72.5835 5.776 72.7222 6.10933 72.7222 6.536V6.576C72.7222 7.00267 72.5835 7.336 72.3062 7.576C72.0289 7.816 71.6369 7.936 71.1302 7.936H67.3462C66.8395 7.936 66.4475 7.816 66.1702 7.576C65.8982 7.336 65.7622 7.00267 65.7622 6.576V6.536ZM71.0902 6.536C71.0902 6.45067 71.0555 6.38133 70.9862 6.328C70.9222 6.26933 70.8315 6.24 70.7142 6.24H67.7622C67.6449 6.24 67.5542 6.26933 67.4902 6.328C67.4262 6.38133 67.3942 6.45067 67.3942 6.536V6.584C67.3942 6.66933 67.4235 6.73867 67.4822 6.792C67.5462 6.84533 67.6395 6.872 67.7622 6.872H70.7142C70.8369 6.872 70.9302 6.84533 70.9942 6.792C71.0582 6.73867 71.0902 6.66933 71.0902 6.584V6.536ZM79.1622 5.888C79.1622 5.63733 79.2395 5.44267 79.3942 5.304C79.5489 5.16533 79.7382 5.096 79.9622 5.096C80.1862 5.096 80.3755 5.16533 80.5302 5.304C80.6849 5.44267 80.7622 5.63733 80.7622 5.888V9.408H79.1622V5.888ZM74.6742 11C74.4555 11 74.2849 10.944 74.1622 10.832C74.0395 10.7147 73.9782 10.56 73.9782 10.368C73.9782 10.176 74.0395 10.024 74.1622 9.912C74.2849 9.79467 74.4555 9.736 74.6742 9.736H79.6262C79.9622 9.736 80.2129 9.77333 80.3782 9.848C80.5435 9.91733 80.6555 10.0373 80.7142 10.208C80.7782 10.3787 80.8102 10.632 80.8102 10.968V12.608H79.1942V11.192C79.1942 11.064 79.1302 11 79.0022 11H74.6742ZM73.9782 8C74.3675 7.84533 74.6582 7.62667 74.8502 7.344C75.0422 7.056 75.1462 6.656 75.1622 6.144V5.864C75.1729 5.65067 75.2555 5.48267 75.4102 5.36C75.5649 5.23733 75.7515 5.176 75.9702 5.176C76.1995 5.176 76.3889 5.24267 76.5382 5.376C76.6875 5.504 76.7622 5.67733 76.7622 5.896V6.168C76.7622 6.328 76.7489 6.50667 76.7222 6.704C77.3355 6.76267 77.8049 7.00267 78.1302 7.424C78.4609 7.84533 78.6129 8.44533 78.5862 9.224H77.0262L77.0342 9.048C77.0342 8.728 76.9729 8.47467 76.8502 8.288C76.7275 8.096 76.5489 7.97333 76.3142 7.92C76.1382 8.21867 75.9275 8.47467 75.6822 8.688C75.4422 8.896 75.1915 9.056 74.9302 9.168C74.6689 9.27467 74.4262 9.328 74.2022 9.328C73.9782 9.328 73.7995 9.26933 73.6662 9.152C73.5382 9.03467 73.4742 8.864 73.4742 8.64C73.4742 8.49067 73.5169 8.36 73.6022 8.248C73.6929 8.136 73.8182 8.05333 73.9782 8ZM89.4044 5.888C89.4044 5.63733 89.4817 5.44267 89.6364 5.304C89.791 5.16533 89.9804 5.096 90.2044 5.096C90.4284 5.096 90.6177 5.16533 90.7724 5.304C90.927 5.44267 91.0044 5.63733 91.0044 5.888V9.168H89.4044V7.272H88.8124C88.6044 7.272 88.439 7.216 88.3164 7.104C88.1937 6.98667 88.1324 6.82933 88.1324 6.632C88.1324 6.44 88.1937 6.28533 88.3164 6.168C88.439 6.04533 88.6044 5.984 88.8124 5.984H89.4044V5.888ZM85.4044 12.608C85.111 12.608 84.8844 12.5707 84.7244 12.496C84.5644 12.4213 84.4497 12.304 84.3804 12.144C84.3164 11.984 84.2844 11.7627 84.2844 11.48V10.152C84.2844 9.90133 84.3564 9.71467 84.5004 9.592C84.6497 9.464 84.847 9.4 85.0924 9.4C85.3164 9.4 85.4977 9.456 85.6364 9.568C85.7804 9.67467 85.863 9.83733 85.8844 10.056H89.4204C89.4364 9.83733 89.5164 9.67467 89.6604 9.568C89.8044 9.456 89.991 9.4 90.2204 9.4C90.4604 9.4 90.6524 9.464 90.7964 9.592C90.9404 9.71467 91.0124 9.90133 91.0124 10.152V12.608H85.4044ZM84.2284 7.856C84.591 7.71733 84.8604 7.51733 85.0364 7.256C85.2177 6.98933 85.319 6.61333 85.3404 6.128L85.3484 5.848C85.3644 5.64 85.4444 5.47733 85.5884 5.36C85.7377 5.23733 85.9217 5.176 86.1404 5.176C86.375 5.176 86.5644 5.24 86.7084 5.368C86.8577 5.496 86.9324 5.66933 86.9324 5.888V6.152C86.9324 6.31733 86.919 6.49867 86.8924 6.696C87.4844 6.76 87.935 6.98933 88.2444 7.384C88.559 7.77333 88.7004 8.33333 88.6684 9.064H87.1324L87.1404 8.896C87.1404 8.60267 87.0817 8.37067 86.9644 8.2C86.8524 8.02933 86.687 7.92267 86.4684 7.88C86.223 8.28 85.911 8.59467 85.5324 8.824C85.159 9.05333 84.799 9.168 84.4524 9.168C84.2284 9.168 84.0497 9.10933 83.9164 8.992C83.7884 8.87467 83.7244 8.70667 83.7244 8.488C83.7244 8.33333 83.767 8.20267 83.8524 8.096C83.943 7.984 84.0684 7.904 84.2284 7.856ZM85.8844 11.376C85.8844 11.456 85.8977 11.5067 85.9244 11.528C85.951 11.5493 86.0044 11.56 86.0844 11.56H89.4124V11.056H85.8844V11.376ZM96.5164 9.392C96.7297 9.392 96.8897 9.45333 96.9964 9.576C97.1084 9.69333 97.1644 9.84 97.1644 10.016C97.1644 10.1973 97.1084 10.344 96.9964 10.456C96.8897 10.568 96.7297 10.624 96.5164 10.624H95.3644V10.744C95.3644 11.1387 95.263 11.4827 95.0604 11.776C94.863 12.064 94.5937 12.2853 94.2524 12.44C93.9164 12.5947 93.543 12.672 93.1324 12.672C92.8444 12.672 92.623 12.6133 92.4684 12.496C92.3137 12.3787 92.2364 12.224 92.2364 12.032C92.2364 11.8453 92.2924 11.7013 92.4044 11.6C92.5164 11.4987 92.6737 11.448 92.8764 11.448C93.143 11.448 93.351 11.3893 93.5004 11.272C93.655 11.1493 93.7324 10.9787 93.7324 10.76V10.624H92.3884C92.175 10.624 92.0124 10.568 91.9004 10.456C91.7937 10.344 91.7404 10.1973 91.7404 10.016C91.7404 9.84 91.7937 9.69333 91.9004 9.576C92.0124 9.45333 92.175 9.392 92.3884 9.392H96.5164ZM97.4044 5.888C97.4044 5.63733 97.4817 5.44267 97.6364 5.304C97.791 5.16533 97.9804 5.096 98.2044 5.096C98.4284 5.096 98.6177 5.16533 98.7724 5.304C98.927 5.44267 99.0044 5.63733 99.0044 5.888V12.608H97.4044V5.888ZM92.4204 7.976C92.7884 7.97067 93.0737 7.88 93.2764 7.704C93.479 7.52267 93.5884 7.27467 93.6044 6.96H92.4924C92.327 6.96 92.191 6.90133 92.0844 6.784C91.983 6.66133 91.9324 6.52267 91.9324 6.368C91.9324 6.208 91.9804 6.06667 92.0764 5.944C92.1724 5.82133 92.311 5.76 92.4924 5.76H93.5644V5.752C93.5644 5.53333 93.6284 5.36533 93.7564 5.248C93.8897 5.13067 94.079 5.072 94.3244 5.072C94.5697 5.072 94.759 5.13067 94.8924 5.248C95.031 5.36533 95.1004 5.53333 95.1004 5.752V5.76H96.2284C96.4097 5.76 96.5484 5.82133 96.6444 5.944C96.7404 6.06667 96.7884 6.208 96.7884 6.368C96.7884 6.52267 96.735 6.66133 96.6284 6.784C96.527 6.90133 96.3937 6.96 96.2284 6.96H95.0684C95.0577 7.10933 95.047 7.224 95.0364 7.304C96.279 7.272 96.8817 7.86133 96.8444 9.072H95.3964C95.4017 8.83733 95.3404 8.656 95.2124 8.528C95.0844 8.39467 94.9164 8.328 94.7084 8.328C94.639 8.328 94.5884 8.33067 94.5564 8.336C94.3377 8.58667 94.063 8.78133 93.7324 8.92C93.4017 9.05867 93.039 9.128 92.6444 9.128C92.415 9.128 92.2257 9.07467 92.0764 8.968C91.9324 8.856 91.8604 8.704 91.8604 8.512C91.8604 8.352 91.911 8.224 92.0124 8.128C92.119 8.02667 92.255 7.976 92.4204 7.976ZM107.647 5.888C107.647 5.63733 107.724 5.44267 107.879 5.304C108.033 5.16533 108.223 5.096 108.447 5.096C108.671 5.096 108.86 5.16533 109.015 5.304C109.169 5.44267 109.247 5.63733 109.247 5.888V12.608H107.647V5.888ZM102.711 10.96C103.425 10.8853 103.977 10.6587 104.367 10.28C104.756 9.896 104.951 9.26133 104.951 8.376V6.976C104.951 6.91733 104.932 6.86933 104.895 6.832C104.863 6.79467 104.815 6.776 104.751 6.776H102.903C102.679 6.776 102.503 6.70933 102.375 6.576C102.252 6.43733 102.191 6.27733 102.191 6.096C102.191 5.91467 102.252 5.75467 102.375 5.616C102.497 5.472 102.673 5.4 102.903 5.4H105.303C105.729 5.4 106.039 5.496 106.231 5.688C106.428 5.88 106.527 6.16533 106.527 6.544V8.384C106.527 9.264 106.364 9.992 106.039 10.568C105.719 11.1387 105.284 11.5627 104.735 11.84C104.191 12.112 103.575 12.2613 102.887 12.288C102.668 12.2987 102.481 12.2453 102.327 12.128C102.172 12.016 102.095 11.8533 102.095 11.64C102.095 11.4587 102.145 11.3067 102.247 11.184C102.353 11.056 102.508 10.9813 102.711 10.96ZM116.847 8.736C117.055 8.736 117.209 8.78933 117.311 8.896C117.417 9.00267 117.471 9.14133 117.471 9.312C117.471 9.488 117.417 9.62933 117.311 9.736C117.204 9.83733 117.049 9.888 116.847 9.888H110.607C110.404 9.888 110.249 9.83733 110.143 9.736C110.036 9.62933 109.983 9.488 109.983 9.312C109.983 9.14133 110.033 9.00267 110.135 8.896C110.241 8.78933 110.399 8.736 110.607 8.736H112.911V8.512V8.424H111.431C111.057 8.424 110.769 8.336 110.567 8.16C110.364 7.97867 110.263 7.736 110.263 7.432V7.352C110.263 7.04267 110.361 6.808 110.559 6.648C110.756 6.48267 111.047 6.4 111.431 6.4H115.399V6.288C115.399 6.23467 115.385 6.19733 115.359 6.176C115.337 6.14933 115.295 6.136 115.231 6.136H110.815C110.665 6.136 110.548 6.09067 110.463 6C110.377 5.904 110.335 5.792 110.335 5.664C110.335 5.536 110.375 5.424 110.455 5.328C110.54 5.232 110.66 5.184 110.815 5.184H116.079C116.431 5.184 116.679 5.25067 116.823 5.384C116.972 5.512 117.047 5.70667 117.047 5.968V7.208H112.159C112.041 7.208 111.983 7.25333 111.983 7.344C111.983 7.392 111.996 7.42667 112.023 7.448C112.049 7.464 112.095 7.472 112.159 7.472H116.767C116.921 7.472 117.036 7.52 117.111 7.616C117.191 7.712 117.231 7.82667 117.231 7.96C117.231 8.08267 117.193 8.192 117.119 8.288C117.044 8.37867 116.927 8.424 116.767 8.424H114.535L114.543 8.512V8.736H116.847ZM110.967 11.368C110.753 11.368 110.588 11.3147 110.471 11.208C110.353 11.1013 110.295 10.9573 110.295 10.776C110.295 10.5947 110.353 10.4533 110.471 10.352C110.588 10.2453 110.753 10.192 110.967 10.192H115.991C116.316 10.192 116.559 10.2293 116.719 10.304C116.879 10.3733 116.988 10.4933 117.047 10.664C117.105 10.8293 117.135 11.0747 117.135 11.4V12.608H115.535V11.544C115.535 11.48 115.521 11.4347 115.495 11.408C115.468 11.3813 115.423 11.368 115.359 11.368H110.967ZM125.689 5.888C125.689 5.63733 125.766 5.44267 125.921 5.304C126.075 5.16533 126.265 5.096 126.489 5.096C126.713 5.096 126.902 5.16533 127.057 5.304C127.211 5.44267 127.289 5.63733 127.289 5.888V6.456H127.537C127.761 6.456 127.921 6.52533 128.017 6.664C128.118 6.79733 128.169 6.96 128.169 7.152C128.169 7.344 128.118 7.50933 128.017 7.648C127.915 7.78133 127.755 7.848 127.537 7.848H127.289V9.168H125.689V5.888ZM121.905 12.608C121.579 12.608 121.337 12.5707 121.177 12.496C121.017 12.4267 120.907 12.3067 120.849 12.136C120.79 11.9707 120.761 11.7253 120.761 11.4V10.656C120.761 10.3307 120.79 10.0853 120.849 9.92C120.907 9.74933 121.017 9.62933 121.177 9.56C121.337 9.48533 121.579 9.448 121.905 9.448H126.209C126.529 9.448 126.766 9.48533 126.921 9.56C127.081 9.62933 127.19 9.74667 127.249 9.912C127.307 10.0773 127.337 10.32 127.337 10.64V12.608H121.905ZM122.337 11.28C122.337 11.3707 122.347 11.4293 122.369 11.456C122.39 11.4773 122.441 11.488 122.521 11.488H125.761V10.76C125.761 10.6747 125.747 10.6213 125.721 10.6C125.699 10.5733 125.649 10.56 125.569 10.56H122.521C122.446 10.56 122.395 10.5733 122.369 10.6C122.347 10.6213 122.337 10.6747 122.337 10.76V11.28ZM124.617 7.688C124.83 7.688 124.982 7.74667 125.073 7.864C125.169 7.98133 125.217 8.128 125.217 8.304C125.217 8.48 125.169 8.62933 125.073 8.752C124.982 8.86933 124.83 8.928 124.617 8.928H121.433C121.102 8.928 120.859 8.85067 120.705 8.696C120.555 8.536 120.481 8.304 120.481 8V6.024C120.481 5.78933 120.555 5.61067 120.705 5.488C120.854 5.36 121.043 5.296 121.273 5.296C121.502 5.296 121.689 5.35733 121.833 5.48C121.977 5.60267 122.049 5.77333 122.049 5.992V7.52C122.049 7.584 122.062 7.62933 122.089 7.656C122.115 7.67733 122.161 7.688 122.225 7.688H124.617ZM133.889 5.888C133.889 5.63733 133.966 5.44267 134.121 5.304C134.275 5.16533 134.465 5.096 134.689 5.096C134.913 5.096 135.102 5.16533 135.257 5.304C135.411 5.44267 135.489 5.63733 135.489 5.888V12.608H133.889V5.888ZM128.953 10.96C129.667 10.8853 130.219 10.6587 130.609 10.28C130.998 9.896 131.193 9.26133 131.193 8.376V6.976C131.193 6.91733 131.174 6.86933 131.137 6.832C131.105 6.79467 131.057 6.776 130.993 6.776H129.145C128.921 6.776 128.745 6.70933 128.617 6.576C128.494 6.43733 128.433 6.27733 128.433 6.096C128.433 5.91467 128.494 5.75467 128.617 5.616C128.739 5.472 128.915 5.4 129.145 5.4H131.545C131.971 5.4 132.281 5.496 132.473 5.688C132.67 5.88 132.769 6.16533 132.769 6.544V8.384C132.769 9.264 132.606 9.992 132.281 10.568C131.961 11.1387 131.526 11.5627 130.977 11.84C130.433 12.112 129.817 12.2613 129.129 12.288C128.91 12.2987 128.723 12.2453 128.569 12.128C128.414 12.016 128.337 11.8533 128.337 11.64C128.337 11.4587 128.387 11.3067 128.489 11.184C128.595 11.056 128.75 10.9813 128.953 10.96ZM141.889 5.888C141.889 5.63733 141.966 5.44267 142.121 5.304C142.275 5.16533 142.465 5.096 142.689 5.096C142.913 5.096 143.102 5.16533 143.257 5.304C143.411 5.44267 143.489 5.63733 143.489 5.888V12.608H141.889V5.888ZM136.953 10.96C137.667 10.8853 138.219 10.6587 138.609 10.28C138.998 9.896 139.193 9.26133 139.193 8.376V6.976C139.193 6.91733 139.174 6.86933 139.137 6.832C139.105 6.79467 139.057 6.776 138.993 6.776H137.145C136.921 6.776 136.745 6.70933 136.617 6.576C136.494 6.43733 136.433 6.27733 136.433 6.096C136.433 5.91467 136.494 5.75467 136.617 5.616C136.739 5.472 136.915 5.4 137.145 5.4H139.545C139.971 5.4 140.281 5.496 140.473 5.688C140.67 5.88 140.769 6.16533 140.769 6.544V8.384C140.769 9.264 140.606 9.992 140.281 10.568C139.961 11.1387 139.526 11.5627 138.977 11.84C138.433 12.112 137.817 12.2613 137.129 12.288C136.91 12.2987 136.723 12.2453 136.569 12.128C136.414 12.016 136.337 11.8533 136.337 11.64C136.337 11.4587 136.387 11.3067 136.489 11.184C136.595 11.056 136.75 10.9813 136.953 10.96Z" fill="black"/>
<circle cx="17.5" cy="17.5" r="5.5" fill="white"/>
<path d="M24.5 3L11 31.5" stroke="white" stroke-width="2"/>
<path d="M15.0771 0.5H19.9229C27.9898 0.500093 34.4999 6.81592 34.5 14.5713V19.4287C34.4999 27.1841 27.9898 33.4999 19.9229 33.5H15.0771C7.01022 33.4999 0.500078 27.1841 0.5 19.4287V14.5713C0.500078 6.81592 7.01022 0.500093 15.0771 0.5Z" stroke="black"/>
<circle cx="17.5" cy="17.5" r="11" fill="#00FF73" stroke="black"/>
<mask id="path-7-inside-1_412_18" fill="white">
<path d="M17.3944 28.9995C14.9364 28.977 12.5503 28.1674 10.5861 26.6896C8.6218 25.2117 7.18276 23.1434 6.47997 20.7879C5.77719 18.4324 5.84765 15.9137 6.68102 13.6012C7.51439 11.2886 9.06681 9.30399 11.1106 7.93828L17.4999 17.5L17.3944 28.9995Z"/>
</mask>
<path d="M17.3944 28.9995C14.9364 28.977 12.5503 28.1674 10.5861 26.6896C8.6218 25.2117 7.18276 23.1434 6.47997 20.7879C5.77719 18.4324 5.84765 15.9137 6.68102 13.6012C7.51439 11.2886 9.06681 9.30399 11.1106 7.93828L17.4999 17.5L17.3944 28.9995Z" fill="#76ADFF" stroke="black" stroke-width="2" mask="url(#path-7-inside-1_412_18)"/>
<path d="M28.4863 18.5C28.4235 19.702 28.1353 20.8876 27.6309 22.0039C27.0566 23.2747 26.2134 24.432 25.1475 25.4092C24.0814 26.3864 22.8134 27.1643 21.415 27.6953C20.1705 28.1679 18.845 28.4348 17.5 28.4883V18.5H28.4863Z" fill="#FF1616" stroke="black"/>
</svg>
