<svg width="153" height="34" viewBox="0 0 153 34" fill="none" xmlns="http://www.w3.org/2000/svg">
<path d="M44.52 18.92H39.32V5.48H44.52V9.88H48.84V5.48H54.04V18.92H48.84V14.2H44.52V18.92ZM60.7594 19.24C57.0794 19.24 54.6314 17.128 54.5194 13.944H59.0154C59.1114 14.808 59.7674 15.4 60.7594 15.4C61.8314 15.4 62.5194 14.696 62.5194 13.704C62.5194 12.712 61.8314 12.04 60.7594 12.04C59.7674 12.04 59.0314 12.68 59.0154 13.784L54.5194 13.464C54.6474 10.296 57.0954 8.2 60.7594 8.2C64.5194 8.2 66.9994 10.408 66.9994 13.72C66.9994 17.032 64.5194 19.24 60.7594 19.24ZM67.4763 18.92V8.52H71.8763V18.92H67.4763ZM72.0363 9.272C72.8523 8.664 74.3083 8.2 75.4283 8.2C76.6603 8.2 77.4763 8.536 77.9723 9.256C78.9483 8.664 80.1643 8.2 81.5883 8.2C83.8763 8.2 84.7563 9.336 84.7563 12.072V18.92H80.3563V13.048C80.3563 12.504 80.2123 12.328 79.7803 12.328C79.4123 12.328 79.0283 12.408 78.5963 12.616V18.92H74.1963V13.048C74.1963 12.504 74.0523 12.328 73.6203 12.328C73.3323 12.328 72.9803 12.456 72.3563 12.792L72.0363 9.272ZM85.3981 8.52H89.7981V9.16C90.6781 8.536 91.9101 8.2 93.2861 8.2C96.3421 8.2 98.3581 10.488 98.3581 13.944C98.3581 17.256 96.4541 19.224 93.2861 19.224C92.1661 19.224 91.0141 19.128 89.9581 18.728L90.4381 15.448H91.3501C93.0621 15.448 93.8781 14.872 93.8781 13.816C93.8781 12.808 93.1261 12.216 91.8461 12.216C90.4701 12.216 89.7981 12.92 89.7981 14.104V21.8H85.3981V8.52ZM99.4756 9.272C101.204 8.584 103.844 8.2 105.62 8.2C108.708 8.2 110.196 9.08 110.196 11.72V18.92H105.796V15.176H105.396C104.212 15.176 103.38 15.272 103.38 15.832C103.38 16.312 104.068 16.408 105.076 16.408H105.236L105.636 18.84C105.012 19.08 103.86 19.24 102.788 19.24C99.9716 19.24 98.5956 18.104 98.5956 16.232C98.5956 14.12 100.628 12.536 104.372 12.536H105.796V12.504C105.796 11.768 105.716 11.672 104.836 11.672C103.284 11.672 101.156 12.104 99.7956 12.504L99.4756 9.272ZM111.076 14.936C112.836 15.496 114.244 15.736 115.62 15.736C116.628 15.736 116.852 15.656 116.852 15.416C116.852 15.176 116.596 15.096 115.812 15.096C112.228 15.096 110.676 14.008 110.676 11.688C110.676 9.384 112.532 8.2 116.18 8.2C117.78 8.2 119.396 8.488 120.804 8.952L120.484 12.28C118.772 11.832 117.524 11.64 116.196 11.64C115.332 11.64 114.996 11.72 114.996 11.96C114.996 12.2 115.284 12.28 115.956 12.28C119.796 12.28 121.156 13.352 121.156 15.672C121.156 18.056 119.572 19.24 116.372 19.24C114.292 19.24 112.34 18.936 110.756 18.36L111.076 14.936ZM121.873 14.936C123.633 15.496 125.041 15.736 126.417 15.736C127.425 15.736 127.649 15.656 127.649 15.416C127.649 15.176 127.393 15.096 126.609 15.096C123.025 15.096 121.473 14.008 121.473 11.688C121.473 9.384 123.329 8.2 126.977 8.2C128.577 8.2 130.193 8.488 131.601 8.952L131.281 12.28C129.569 11.832 128.321 11.64 126.993 11.64C126.129 11.64 125.793 11.72 125.793 11.96C125.793 12.2 126.081 12.28 126.753 12.28C130.593 12.28 131.953 13.352 131.953 15.672C131.953 18.056 130.369 19.24 127.169 19.24C125.089 19.24 123.137 18.936 121.553 18.36L121.873 14.936Z" fill="black"/>
<path d="M45.16 24.888H47.32V27.36H47.88V29.36H47.32V32.312H45.16V24.888ZM39.24 29.52C39.24 28.184 39.32 26.824 39.52 25.064L41.84 25.144C41.712 26.792 41.68 27.832 41.68 28.936C41.68 29.736 41.808 29.952 42.616 29.952C43.304 29.952 43.808 29.912 44.752 29.808L44.832 31.816C43.872 31.96 42.688 32.056 41.784 32.056C39.896 32.056 39.24 31.408 39.24 29.52ZM48.6809 30H50.9609V30.672H56.4409V32.312H48.6809V30ZM48.2409 27.744V25.048H50.2809V25.296C50.7689 25.112 51.2809 25.008 51.8089 25.008C53.1689 25.008 53.8329 25.528 53.8329 26.664C53.8329 27.096 53.7609 27.624 53.6009 28.16H53.7529L53.8329 29.76H50.5849C48.7449 29.76 48.2409 29.264 48.2409 27.744ZM50.2809 27.544C50.2809 28.064 50.4329 28.16 50.9769 28.16H51.7529C51.8329 27.848 51.8729 27.568 51.8729 27.224C51.8729 26.744 51.6089 26.576 51.0569 26.576C50.8089 26.576 50.5449 26.616 50.2809 26.68V27.544ZM54.1609 30.392V24.888H56.2809V26.768H56.8409V28.728H56.2809V30.392H54.1609ZM63.4019 24.888H65.6019V32.312H63.4019V31.976H57.0419V30.256H63.4019V24.888ZM57.2019 27.624H59.3699C59.4179 28.016 59.7139 28.36 60.2019 28.36C60.7459 28.36 61.0339 27.936 61.0339 27.48C61.0339 27.024 60.7459 26.6 60.2019 26.6C59.6899 26.6 59.3699 26.968 59.3619 27.544L57.2019 27.384C57.2579 25.848 58.3619 24.944 60.2019 24.944C62.0899 24.944 63.1939 25.896 63.1939 27.504C63.1939 29.192 62.0899 30.064 60.2019 30.064C58.3619 30.064 57.2579 29.16 57.2019 27.624ZM67.9484 29.76H75.9804V32.312H67.9484V29.76ZM67.6044 29.56V28.44H76.3244V29.56H67.6044ZM67.8364 26.664H70.3244C70.5244 26.848 70.9004 26.912 71.9564 26.912C73.3164 26.912 73.6524 26.736 73.6524 26.528C73.6524 26.312 73.3164 26.144 71.9564 26.144C70.8924 26.144 70.4044 26.28 70.3244 26.584L67.8364 26.424C67.9244 25.368 69.2284 24.808 71.9644 24.808C74.8044 24.808 76.1004 25.408 76.1004 26.544C76.1004 27.672 74.8044 28.28 71.9644 28.28C69.2284 28.28 67.8364 27.712 67.8364 26.664ZM70.1884 31.272H73.7404V30.76H70.1884V31.272ZM77.3653 29.72H85.0053V32.312H82.7253V31.2H77.3653V29.72ZM76.8053 29.4C76.8053 26.568 77.0613 25.768 77.8053 24.92H79.9653C79.7493 25.224 79.5813 25.496 79.4373 25.776C79.8133 25.688 80.1813 25.64 80.5733 25.64C81.9653 25.64 82.4773 26.136 82.4773 27.464V29.4L80.3573 29.48V27.984C80.3573 27.648 80.1893 27.496 79.7413 27.496C79.5413 27.496 79.2693 27.544 78.9813 27.64C78.9413 28.144 78.9253 28.736 78.9253 29.48L76.8053 29.4ZM82.7653 29.52V24.888H85.0053V29.52H82.7653ZM88.0078 29.64H90.1678V29.92H93.4478V29.64H95.6078V32.312H88.0078V29.64ZM87.3278 29.32C87.3278 26.528 87.5838 25.744 88.3278 24.904H90.4878C90.2718 25.2 90.1038 25.472 89.9598 25.752C90.3358 25.664 90.7038 25.616 91.0958 25.616C91.8318 25.616 92.3278 25.752 92.6238 26.08H93.4878V24.888H95.6078V29.44H93.4878V27.752H92.9998V29.32L90.8798 29.4V27.944C90.8798 27.608 90.7118 27.464 90.2638 27.464C90.0638 27.464 89.7918 27.504 89.5038 27.608C89.4638 28.096 89.4478 28.672 89.4478 29.4L87.3278 29.32ZM90.1678 31.272H93.4478V30.92H90.1678V31.272ZM102.369 24.888H104.609V32.312H102.369V31.296H100.289V32.272H98.0488V31.296H96.0488V29.776H102.369V24.888ZM96.2488 29.456C96.2488 28.44 96.3288 27.88 96.6328 27.456H96.2888V26.256H102.041V27.456H98.7768C98.6888 27.576 98.6168 27.704 98.5608 27.848C99.0728 27.752 99.6568 27.696 100.201 27.696C101.625 27.696 102.081 27.952 102.081 28.76V29.456L99.9608 29.536V29.248C99.9608 29.048 99.8088 28.968 99.4248 28.968C99.1688 28.968 98.7528 29.008 98.3768 29.072C98.3688 29.216 98.3688 29.368 98.3688 29.536L96.2488 29.456ZM96.6088 26.016V24.856H101.721V26.016H96.6088ZM112.851 24.888H115.131V32.312H112.851V24.888ZM106.891 30.136C109.691 29.824 110.203 29.424 110.203 27.96C110.203 27.424 109.939 27.152 109.387 27.152C108.939 27.152 108.419 27.2 107.211 27.344L106.971 25.344C108.187 25.104 109.251 24.984 110.099 24.984C111.787 24.984 112.483 25.776 112.483 27.68C112.483 30.768 110.843 32.136 107.131 32.136L106.891 30.136ZM115.956 29.88H123.988V32.312H121.628V31.32H115.956V29.88ZM115.612 29.68V28.608H118.852V28.408C116.46 28.384 115.996 28.176 115.996 27.616C115.996 27.416 116.036 27.224 116.1 27.048H115.876V26.136H121.388C121.42 26.064 121.428 26.024 121.428 25.984C121.428 25.872 121.316 25.848 120.868 25.848C119.764 25.848 117.604 25.88 116.116 25.92L116.036 24.976C117.396 24.912 119.252 24.872 120.468 24.872C123.22 24.872 123.908 25.016 123.908 25.608C123.908 25.752 123.852 25.952 123.772 26.136H123.908V27.048H118.492C118.476 27.088 118.468 27.128 118.468 27.168C118.468 27.32 118.564 27.352 119.132 27.352C120.572 27.352 122.86 27.304 123.988 27.256L124.068 28.256C123.268 28.304 122.124 28.344 121.092 28.376V28.608H124.332V29.68H115.612ZM126.775 29.72H134.375V32.312H126.775V29.72ZM126.335 27.864C126.335 26.872 126.423 26.008 126.615 25L128.895 25.048C128.767 26.08 128.735 26.576 128.735 27.064C128.735 27.536 128.879 27.656 129.431 27.656C130.047 27.656 130.671 27.632 131.847 27.568L131.927 29.336C130.847 29.432 129.879 29.48 128.879 29.48C126.991 29.48 126.335 29.072 126.335 27.864ZM128.935 31.232H132.215V30.76H128.935V31.232ZM132.255 29.52V24.888H134.375V26.392H134.935V28.272H134.375V29.52H132.255ZM141.336 24.888H143.616V32.312H141.336V24.888ZM135.376 30.136C138.176 29.824 138.688 29.424 138.688 27.96C138.688 27.424 138.424 27.152 137.872 27.152C137.424 27.152 136.904 27.2 135.696 27.344L135.456 25.344C136.672 25.104 137.736 24.984 138.584 24.984C140.272 24.984 140.968 25.776 140.968 27.68C140.968 30.768 139.328 32.136 135.616 32.136L135.376 30.136ZM150.297 24.888H152.577V32.312H150.297V24.888ZM144.337 30.136C147.137 29.824 147.649 29.424 147.649 27.96C147.649 27.424 147.385 27.152 146.833 27.152C146.385 27.152 145.865 27.2 144.657 27.344L144.417 25.344C145.633 25.104 146.697 24.984 147.545 24.984C149.233 24.984 149.929 25.776 149.929 27.68C149.929 30.768 148.289 32.136 144.577 32.136L144.337 30.136Z" fill="black"/>
<path d="M15.0771 1H19.9229C27.7299 1.00009 33.9999 7.10801 34 14.5713V19.4287C33.9999 26.892 27.7299 32.9999 19.9229 33H15.0771C7.27014 32.9999 1.00008 26.892 1 19.4287V14.5713C1.00008 7.10801 7.27014 1.00009 15.0771 1Z" stroke="black" stroke-width="2"/>
<circle cx="17.5" cy="17.5" r="11" fill="black" stroke="black"/>
<path d="M29 17.5C29 19.0102 28.7025 20.5056 28.1246 21.9009C27.5467 23.2961 26.6996 24.5639 25.6317 25.6317C24.5639 26.6996 23.2961 27.5467 21.9009 28.1246C20.5056 28.7025 19.0102 29 17.5 29C15.9898 29 14.4944 28.7025 13.0991 28.1246C11.7039 27.5467 10.4361 26.6996 9.36827 25.6317C8.3004 24.5639 7.45331 23.2961 6.87539 21.9009C6.29746 20.5056 6 19.0102 6 17.5L16.0139 17.5C16.0139 17.6952 16.0524 17.8884 16.1271 18.0687C16.2017 18.249 16.3112 18.4128 16.4492 18.5508C16.5872 18.6888 16.751 18.7983 16.9313 18.8729C17.1116 18.9476 17.3048 18.9861 17.5 18.9861C17.6952 18.9861 17.8884 18.9476 18.0687 18.8729C18.249 18.7983 18.4128 18.6888 18.5508 18.5508C18.6888 18.4128 18.7983 18.249 18.8729 18.0687C18.9476 17.8884 18.9861 17.6952 18.9861 17.5H29Z" fill="#5900FF"/>
<circle cx="17.5" cy="17.5" r="5.5" fill="white"/>
<path d="M24.5 3L11 31.5" stroke="white" stroke-width="2"/>
</svg>
