<svg width="179" height="35" viewBox="0 0 179 35" fill="none" xmlns="http://www.w3.org/2000/svg">
<path d="M47.28 29.88H39.48V9.72H47.28V16.32H53.76V9.72H61.56V29.88H53.76V22.8H47.28V29.88ZM71.6391 30.36C66.1191 30.36 62.4471 27.192 62.2791 22.416H69.0231C69.1671 23.712 70.1511 24.6 71.6391 24.6C73.2471 24.6 74.2791 23.544 74.2791 22.056C74.2791 20.568 73.2471 19.56 71.6391 19.56C70.1511 19.56 69.0471 20.52 69.0231 22.176L62.2791 21.696C62.4711 16.944 66.1431 13.8 71.6391 13.8C77.2791 13.8 80.9991 17.112 80.9991 22.08C80.9991 27.048 77.2791 30.36 71.6391 30.36ZM81.7144 29.88V14.28H88.3144V29.88H81.7144ZM88.5544 15.408C89.7784 14.496 91.9624 13.8 93.6424 13.8C95.4904 13.8 96.7144 14.304 97.4584 15.384C98.9224 14.496 100.746 13.8 102.882 13.8C106.314 13.8 107.634 15.504 107.634 19.608V29.88H101.034V21.072C101.034 20.256 100.818 19.992 100.17 19.992C99.6184 19.992 99.0424 20.112 98.3944 20.424V29.88H91.7944V21.072C91.7944 20.256 91.5784 19.992 90.9304 19.992C90.4984 19.992 89.9704 20.184 89.0344 20.688L88.5544 15.408ZM108.597 14.28H115.197V15.24C116.517 14.304 118.365 13.8 120.429 13.8C125.013 13.8 128.037 17.232 128.037 22.416C128.037 27.384 125.181 30.336 120.429 30.336C118.749 30.336 117.021 30.192 115.437 29.592L116.157 24.672H117.525C120.093 24.672 121.317 23.808 121.317 22.224C121.317 20.712 120.189 19.824 118.269 19.824C116.205 19.824 115.197 20.88 115.197 22.656V34.2H108.597V14.28ZM129.713 15.408C132.305 14.376 136.265 13.8 138.929 13.8C143.561 13.8 145.793 15.12 145.793 19.08V29.88H139.193V24.264H138.593C136.817 24.264 135.569 24.408 135.569 25.248C135.569 25.968 136.601 26.112 138.113 26.112H138.353L138.953 29.76C138.017 30.12 136.289 30.36 134.681 30.36C130.457 30.36 128.393 28.656 128.393 25.848C128.393 22.68 131.441 20.304 137.057 20.304H139.193V20.256C139.193 19.152 139.073 19.008 137.753 19.008C135.425 19.008 132.233 19.656 130.193 20.256L129.713 15.408ZM147.113 23.904C149.753 24.744 151.865 25.104 153.929 25.104C155.441 25.104 155.777 24.984 155.777 24.624C155.777 24.264 155.393 24.144 154.217 24.144C148.841 24.144 146.513 22.512 146.513 19.032C146.513 15.576 149.297 13.8 154.769 13.8C157.169 13.8 159.593 14.232 161.705 14.928L161.225 19.92C158.657 19.248 156.785 18.96 154.793 18.96C153.497 18.96 152.993 19.08 152.993 19.44C152.993 19.8 153.425 19.92 154.433 19.92C160.193 19.92 162.233 21.528 162.233 25.008C162.233 28.584 159.857 30.36 155.057 30.36C151.937 30.36 149.009 29.904 146.633 29.04L147.113 23.904ZM163.309 23.904C165.949 24.744 168.061 25.104 170.125 25.104C171.637 25.104 171.973 24.984 171.973 24.624C171.973 24.264 171.589 24.144 170.413 24.144C165.037 24.144 162.709 22.512 162.709 19.032C162.709 15.576 165.493 13.8 170.965 13.8C173.365 13.8 175.789 14.232 177.901 14.928L177.421 19.92C174.853 19.248 172.981 18.96 170.989 18.96C169.693 18.96 169.189 19.08 169.189 19.44C169.189 19.8 169.621 19.92 170.629 19.92C176.389 19.92 178.429 21.528 178.429 25.008C178.429 28.584 176.053 30.36 171.253 30.36C168.133 30.36 165.205 29.904 162.829 29.04L163.309 23.904Z" fill="black"/>
<path d="M15.0771 0.5H19.9229C27.9898 0.500093 34.4999 6.81592 34.5 14.5713V19.4287C34.4999 27.1841 27.9898 33.4999 19.9229 33.5H15.0771C7.01022 33.4999 0.500078 27.1841 0.5 19.4287V14.5713C0.500078 6.81592 7.01022 0.500093 15.0771 0.5Z" stroke="black"/>
<circle cx="17.5" cy="17.5" r="11" fill="#FFC9C9" stroke="black"/>
<mask id="path-4-inside-1_223_6" fill="white">
<path d="M29 17.5C29 19.0102 28.7025 20.5056 28.1246 21.9009C27.5467 23.2961 26.6996 24.5639 25.6317 25.6317C24.5639 26.6996 23.2961 27.5467 21.9009 28.1246C20.5056 28.7025 19.0102 29 17.5 29C15.9898 29 14.4944 28.7025 13.0991 28.1246C11.7039 27.5467 10.4361 26.6996 9.36827 25.6317C8.3004 24.5639 7.45331 23.2961 6.87539 21.9009C6.29746 20.5056 6 19.0102 6 17.5L16.0139 17.5C16.0139 17.6952 16.0524 17.8884 16.1271 18.0687C16.2017 18.249 16.3112 18.4128 16.4492 18.5508C16.5872 18.6888 16.751 18.7983 16.9313 18.8729C17.1116 18.9476 17.3048 18.9861 17.5 18.9861C17.6952 18.9861 17.8884 18.9476 18.0687 18.8729C18.249 18.7983 18.4128 18.6888 18.5508 18.5508C18.6888 18.4128 18.7983 18.249 18.8729 18.0687C18.9476 17.8884 18.9861 17.6952 18.9861 17.5H29Z"/>
</mask>
<path d="M29 17.5C29 19.0102 28.7025 20.5056 28.1246 21.9009C27.5467 23.2961 26.6996 24.5639 25.6317 25.6317C24.5639 26.6996 23.2961 27.5467 21.9009 28.1246C20.5056 28.7025 19.0102 29 17.5 29C15.9898 29 14.4944 28.7025 13.0991 28.1246C11.7039 27.5467 10.4361 26.6996 9.36827 25.6317C8.3004 24.5639 7.45331 23.2961 6.87539 21.9009C6.29746 20.5056 6 19.0102 6 17.5L16.0139 17.5C16.0139 17.6952 16.0524 17.8884 16.1271 18.0687C16.2017 18.249 16.3112 18.4128 16.4492 18.5508C16.5872 18.6888 16.751 18.7983 16.9313 18.8729C17.1116 18.9476 17.3048 18.9861 17.5 18.9861C17.6952 18.9861 17.8884 18.9476 18.0687 18.8729C18.249 18.7983 18.4128 18.6888 18.5508 18.5508C18.6888 18.4128 18.7983 18.249 18.8729 18.0687C18.9476 17.8884 18.9861 17.6952 18.9861 17.5H29Z" fill="#DAF2F6" stroke="black" stroke-width="2" mask="url(#path-4-inside-1_223_6)"/>
<path d="M28.4873 18C28.4293 19.2738 28.152 20.5296 27.6631 21.71C27.1103 23.0445 26.2997 24.2569 25.2783 25.2783C24.2569 26.2997 23.0445 27.1103 21.71 27.6631C20.5296 28.152 19.2738 28.4293 18 28.4873V18H28.4873Z" fill="#FF1616" stroke="black"/>
</svg>
